<svg width="24" height="24" viewBox="0 0 24 24" fill="none" xmlns="http://www.w3.org/2000/svg">
<path d="M16.6685 4C19.6606 4 21 6.4136 21 8.8055C21 12.6765 15.8225 18.0494 12 20.7833C8.1775 18.0494 3 12.6765 3 8.8055C3 6.4136 4.3394 4 7.3316 4C8.11275 4.04485 8.87178 4.27616 9.54518 4.67458C10.2186 5.07299 10.7867 5.62692 11.2021 6.29L12 7.3466L12.7979 6.29C13.2133 5.62692 13.7815 5.07298 14.4549 4.67456C15.1283 4.27615 15.8873 4.04484 16.6685 4ZM16.6685 3C15.7327 3.04457 14.8211 3.31163 14.0092 3.77903C13.1972 4.24642 12.5085 4.90067 12 5.6875C11.4915 4.90068 10.8028 4.24644 9.99089 3.77905C9.17899 3.31166 8.26736 3.04459 7.3316 3C3.9564 3 2 5.5992 2 8.8055C2 13.5555 8.4583 19.6251 12 22C15.5417 19.6251 22 13.5555 22 8.8055C22 5.5992 20.0436 3 16.6685 3Z" fill="black"/>
<path d="M13.2715 5.1036L12.1319 6.368L11.4729 5.63768L10.4044 4.676L9.10434 3.98153L7.50153 3.44727L6.27271 3.82125L4.13564 4.53361L3.03148 5.86929L2.56836 7.24058V9.25299L3.31632 11.7997L4.56288 14.1505L8.05354 18.0506C8.63537 18.6502 9.80973 19.8671 9.85247 19.9384C9.89521 20.0096 11.3187 20.9772 12.0251 21.4521L13.0224 20.6685L15.8184 18.3712L17.6883 16.3053L19.6829 13.8121L20.5734 11.9956L21.4994 10.4284L21.1789 6.99125L19.3089 4.19524L17.6883 3.66097L15.1951 3.98153L13.2715 5.1036Z" fill="black"/>
</svg>
