<svg width="80" height="17" viewBox="0 0 80 17" fill="none" xmlns="http://www.w3.org/2000/svg">
<path d="M67.5067 2.44596L77.8402 16.2589L78.642 16.1931V4.50694C78.642 2.53366 78.9315 1.72242 80.0005 0.18765V0.143799H76.7935V0.18765C77.8625 1.7005 78.152 2.55558 78.152 4.50694L78.2188 12.6193L68.8875 0.143799H65.3242V0.18765C66.5714 1.17429 66.95 1.7882 67.0613 3.23527V11.83C67.0613 13.7813 66.8163 14.6364 65.7028 16.1493V16.1931H69.1325V16.1493C67.8853 14.6145 67.5958 13.8033 67.5958 11.83L67.5067 2.44596Z" fill="black"/>
<path d="M58.5605 16.2149V16.2589H63.3087V16.2149C62.5052 14.8499 62.3348 14.1014 62.3348 12.2742V4.12855C62.3348 2.30129 62.5052 1.55277 63.3087 0.18783V0.143799H58.5605V0.18783C59.3641 1.55277 59.5345 2.30129 59.5345 4.12855V12.2742C59.5345 14.1014 59.3641 14.8499 58.5605 16.2149Z" fill="black"/>
<path d="M49.1067 16.2589H49.5535L54.4242 3.88947C55.0274 2.21263 55.5189 1.29799 56.5467 0.187354V0.143799H53.5752V0.187354C54.0667 0.906 54.4912 2.36507 53.5305 4.86945L50.3802 12.927L46.8501 3.80237C46.2469 2.23441 46.3809 0.818892 46.8054 0.187354V0.143799H42.1582V0.187354C42.9178 0.971332 43.4541 1.82064 44.169 3.69348L49.1067 16.2589Z" fill="black"/>
<path d="M31.3672 16.2589H42.0543L43.0219 11.8999L42.8459 11.8339C41.6365 13.6831 39.9213 15.7526 38.0961 15.8186L34.7756 15.9507V4.12855C34.7756 2.30129 34.9296 1.55277 35.6552 0.18783V0.143799H31.3672V0.18783C32.0709 1.53076 32.2468 2.34532 32.2468 4.12855V12.2742C32.2468 14.0574 32.0709 14.872 31.3672 16.2149V16.2589Z" fill="black"/>
<path d="M21.7381 16.6906C25.9815 16.6906 27.3297 13.966 27.3297 10.7984V4.55184C27.3297 2.55825 27.617 1.71652 28.921 0.188102L28.8105 0.143799H25.2301V0.188102C26.5341 1.71652 26.8214 2.55825 26.8214 4.55184V10.8206C26.8214 13.5894 25.65 16.1368 22.3569 16.1368C19.9036 16.1368 18.246 14.8077 18.246 11.0199V4.15312C18.246 2.31459 18.5334 1.3178 19.1301 0.188102V0.143799H14.8203V0.188102C15.5497 1.56146 15.7044 2.31459 15.7044 4.15312V11.0864C15.7044 15.0735 18.467 16.6906 21.7381 16.6906Z" fill="black"/>
<path d="M0 16.259H5.87435C10.5202 16.259 12.3741 14.2708 12.3741 11.7524C12.3741 9.89678 11.369 8.17368 8.48765 7.68768C10.6319 6.98076 11.5253 5.52276 11.5253 3.77757C11.5253 2.09865 10.6766 0 5.85201 0C4.0428 0 3.28338 0.0883642 0 0.0883642V0.132547C0.714749 1.4801 0.893437 2.29747 0.893437 4.08684V12.2605C0.893437 14.0499 0.714749 14.8673 0 16.2148V16.259ZM6.05303 7.6214H3.46207V0.662731C3.97579 0.508094 4.6012 0.441821 5.4723 0.441821C7.79524 0.441821 9.06838 1.67892 9.06838 3.91011C9.06838 5.63321 8.30896 7.6214 6.05303 7.6214ZM5.56164 15.8172C4.69054 15.8172 3.99813 15.7067 3.46207 15.5521V8.06322H6.25406C8.57699 8.06322 9.67145 9.65378 9.67145 11.8629C9.67145 14.2266 8.30896 15.8172 5.56164 15.8172Z" fill="black"/>
</svg>
